<svg xmlns="http://www.w3.org/2000/svg" id="swac-preview" viewBox="0 0 512 512" height="430px" width="430px" style="opacity: 1;">
	<g id="swac-helmet-dummy">
	</g>
	<g id="swac-background">
		<g class="swac-base">
			<rect class="col-obj" width="512" height="512" style="fill: rgb(138, 138, 182);">
			</rect>
			<circle class="light-obj" cx="256.118" cy="255.7" r="213.7" style="fill: rgb(154, 154, 192);">
			</circle>
		</g>
	</g>
	<g id="swac-helmet-rear">
		<g class="element-rear">
		</g>
	</g>
	<g id="swac-hair-rear">
		<g class="element-rear">
			<path class="shadow-obj" d="M338.3,107.062l-162.855-.249c-14.666,1.306-25.507,13.683-25.507,28.768V227.47q0,.729.036,1.449c.743,15.033,13.615,26.62,28.666,26.62H341.689l.067-.333a28.892,28.892,0,0,0,20.825-27.736V135.581A28.893,28.893,0,0,0,338.3,107.062Z" style="fill: rgb(42, 37, 25);">
			</path>
		</g>
	</g>
	<g id="swac-bodies">
		<g id="swac-body">
			<path class="col-obj" d="M447.071,461.375l-24.456-74.756c-9.7-31.778-34.185-44.112-72.059-45.412-1.383-.076-2.776-.122-4.179-.122H299.07V250.72H213.675v90.364H166.621c-.866,0-1.727.022-2.586.054-.532.019-1.064.039-1.593.069-18.725.643-34.169,3.989-46.18,11.041-10.095,6.776-18.051,17.5-25.88,34.371L65.927,461.375c-4.94,16.9-9.158,33.744-12.766,50.625h65.378q3.836-16.312,8.564-32.553a3.963,3.963,0,0,1,7.736.8L137.162,512H375.836l2.324-31.753a3.963,3.963,0,0,1,7.736-.8Q390.642,495.7,394.46,512h65.378C456.229,495.119,452.011,478.277,447.071,461.375Z" style="fill: rgb(249, 194, 155);">
			</path>
			<path class="light-obj" d="M362.6,476.193V383.568H149.676v92.3A64.891,64.891,0,0,0,160.6,512h191.65a64.852,64.852,0,0,0,10.814-32.306A13.642,13.642,0,0,1,362.6,476.193Z" style="fill: rgb(250, 209, 179);">
			</path>
			<path class="shadow-obj" d="M213.675,317.467c11.192,6.688,26.118,9.6,42.565,9.763-.213,0-.423.016-.636.016h2.059c-.214,0-.423-.014-.636-.016,16.229-.156,30.976-3,42.118-9.5V250.72H213.675Z" style="fill: rgb(248, 179, 131);">
			</path>
		</g>
		<g id="swac-clothes">
			<g class="swac-base">
				<path class="element-dummy" d="M447.071,461.375l-24.456-74.756c-9.7-31.778-34.185-44.112-72.059-45.412-1.383-.076-2.776-.122-4.179-.122H299.07V309.045c25.574-8.576,42.761-26.715,42.761-58.5V129.755c0-47.068-37.651-64.244-84.475-64.7.284,0,.566-.022.853-.022h-2.761c.286,0,.568.019.852.022-46.824.452-84.474,17.629-84.474,64.7V250.542c0,31.41,16.779,49.494,41.85,58.193v32.349H166.621c-.866,0-1.727.022-2.586.054-.532.019-1.064.039-1.593.069-18.725.643-34.169,3.989-46.18,11.041-10.095,6.776-18.051,17.5-25.88,34.371L65.927,461.375c-4.94,16.9-9.158,33.744-12.766,50.625h65.378q3.836-16.312,8.564-32.553a3.963,3.963,0,0,1,7.736.8L137.162,512H375.836l2.324-31.753a3.963,3.963,0,0,1,7.736-.8Q390.642,495.7,394.46,512h65.378C456.229,495.119,452.011,478.277,447.071,461.375Z" data-default-color="#b9915f">
				</path>
				<path class="col-obj" d="M446.595,460.619,422.14,385.863c-6.269-20.531-18.716-32.937-36.95-39.5h0q-3.69-1.329-7.7-2.343l-.24-.061q-3.93-.988-8.158-1.693c-.162-.027-.327-.052-.49-.079q-1.87-.3-3.8-.556c-.184-.024-.366-.05-.551-.074q-2.11-.266-4.285-.474c-.206-.02-.418-.035-.625-.054q-1.829-.165-3.706-.289c-.376-.025-.752-.05-1.131-.073-1.458-.087-2.93-.162-4.43-.214-1.383-.076-2.775-.122-4.178-.122H299.461v1.487a60.382,60.382,0,0,1-85.156.076l-.074-.074v-1.49H166.149c-.87,0-1.731.022-2.589.053-.532.019-1.064.039-1.593.069-1.489.051-2.95.126-4.4.212-.377.022-.751.047-1.125.072q-1.887.125-3.727.29c-.188.017-.38.031-.567.048q-2.166.2-4.262.47c-.192.024-.381.051-.572.076q-1.934.252-3.81.556l-.411.065q-4.244.7-8.185,1.69l-.168.042q-4.006,1.01-7.7,2.328l-.006,0h0a66.126,66.126,0,0,0-11.251,5.19c-10.094,6.776-18.051,17.5-25.88,34.371L65.451,460.619C60.428,477.8,56.147,494.887,52.5,512h65.378q3.908-16.673,8.749-33.308a4.224,4.224,0,0,1,.411-.912V512H385.191V478.12a4.344,4.344,0,0,1,.23.571q4.855,16.628,8.736,33.308h65.365C455.88,494.856,451.607,477.768,446.595,460.619Z" style="fill: #b9915f">
				</path>
				<path class="light-obj" d="M447.071,461.375l-24.456-74.756c-9.7-31.778-34.185-44.112-72.059-45.412-1.383-.076-2.776-.122-4.18-.122H330.943v28.625l-1.46,1.464h16.893c.764,0,1.589.025,2.52.076l.626.028c19.678.676,37.872,3.029,44.316,24.128l24.484,74.865Q424.4,491.13,429.037,512h30.8C456.227,495.109,452.01,478.272,447.071,461.375Z" style="fill: rgb(193, 157, 113);">
				</path>
				<path class="grey_obj" d="M354.858,467.79H316.445V426.529H383.9v12.218A29.043,29.043,0,0,1,354.858,467.79Z" style="fill: #7c7876">
				</path>
				<polygon class="red_obj" points="428.051 403.932 329.642 403.932 329.642 426.46 435.421 426.46 428.051 403.932" style="fill: #8e4438">
				</polygon>
				<rect class="light-obj" x="128.362" y="423.919" width="77.709" height="24.205" style="fill: rgb(193, 157, 113);">
				</rect>
				<path class="light-obj" d="M117.74,397.742c6.221-13.026,10.821-17.743,13.917-20.013,7-3.811,17.468-5.981,31.153-6.45l.637-.029c.338-.019.683-.03,1.014-.042.5-.018.994-.034,1.5-.034h16.654l-1.475-1.464,18.127-29.38H166.149c-.87,0-1.731.022-2.589.053-.532.019-1.064.039-1.593.069-1.489.051-2.95.126-4.4.212-.377.022-.751.047-1.125.072q-1.887.125-3.727.29c-.188.017-.38.031-.567.048q-2.166.2-4.262.47c-.192.024-.381.051-.572.076q-1.934.252-3.81.556l-.411.065q-4.244.7-8.185,1.69l-.168.042q-4.006,1.01-7.7,2.328l-.006,0h0a66.126,66.126,0,0,0-11.251,5.19c-10.094,6.776-18.051,17.5-25.88,34.371L65.451,460.619C60.428,477.8,56.147,494.887,52.5,512H83.3q4.663-20.9,10.714-41.729Z" style="fill: rgb(193, 157, 113);">
				</path>
				<path class="red_obj" d="M155.31,363.274h50.761a0,0,0,0,1,0,0V426.46a0,0,0,0,1,0,0H128.362a0,0,0,0,1,0,0V390.222A26.948,26.948,0,0,1,155.31,363.274Z" style="fill: #8e4438">
				</path>
				<path class="black_obj" d="M308.508,340.328h-8.963v1.408a60.384,60.384,0,0,1-85.239.155l-.156-.155v-1.408H192.792V512h141.76V369.709l-25.96-29.38Z" style="fill: #312c1d">
				</path>
				<rect class="black_obj" x="192.792" y="382.812" width="141.76" height="129.188" style="fill: #3c3525">
				</rect>
				<path class="shadow-obj" d="M171.908,392.564V512h42.323V297.95l-5.121,5.1A126.3,126.3,0,0,0,171.908,392.564Z" style="fill: rgb(177, 133, 77);">
				</path>
				<path class="shadow-obj" d="M304.581,303.046l-5.12-5.1V467.79h-.295a21.834,21.834,0,0,0-21.835,21.835V512h64.453V392.564A126.3,126.3,0,0,0,304.581,303.046Z" style="fill: rgb(177, 133, 77);">
				</path>
			</g>
		</g>
	</g>
	<g id="swac-faces">
		<g id="swac-ears">
			<g class="swac-base">
				<g class="ears-right">
					<circle class="shadow-obj-2x" cx="320.577" cy="190.528" r="42.948" style="fill: rgb(246, 165, 107);">
					</circle>
				</g>
				<g class="ears-left">
					<circle class="shadow-obj-2x" cx="192.998" cy="190.528" r="42.949" style="fill: rgb(246, 165, 107);">
					</circle>
				</g>
				<path class="element-dummy" d="M257.355,65.059c.284,0,.567-.022.853-.022h-2.761c.286,0,.568.019.852.022-46.824.452-84.474,17.629-84.474,64.7V250.542c0,47.068,37.65,64.244,84.474,64.7-.285,0-.567.022-.852.022h2.761c-.287,0-.569-.019-.853-.022,46.824-.453,84.475-17.629,84.475-64.7V129.755C341.83,82.688,304.179,65.512,257.355,65.059Z" style="fill: #fff">
				</path>
			</g>
		</g>
		<g id="swac-face">
			<g class="swac-base">
				<path class="col-obj" d="M257.355,65.059c.284,0,.567-.022.853-.022h-2.761c.286,0,.568.019.852.022-46.824.452-84.474,17.629-84.474,64.7V250.542c0,47.068,37.65,64.244,84.474,64.7-.285,0-.567.022-.852.022h2.761c-.287,0-.569-.019-.853-.022,46.824-.453,84.475-17.629,84.475-64.7V129.755C341.83,82.688,304.179,65.512,257.355,65.059Z" style="fill: rgb(249, 194, 155);">
				</path>
				<path class="light-obj" d="M256.4,82.937c.249,0,.494-.019.742-.019h-2.4c.245,0,.489.016.738.019-40.75.394-73.515,15.341-73.515,56.3V243.729c0,40.961,32.765,55.908,73.515,56.3-.249,0-.494.019-.738.019h2.4c-.248,0-.492-.016-.742-.019,40.749-.394,73.517-15.341,73.517-56.3V139.239C329.913,98.278,297.145,83.331,256.4,82.937Z" style="fill: rgb(250, 209, 179);">
				</path>
			</g>
		</g>
		<g id="swac-mouth">
			<g class="swac-base">
				<path class="shadow-obj-2x" d="M277.736,249.7H234.887a3.159,3.159,0,1,0,0,6.319h42.849a3.159,3.159,0,1,0,0-6.319Z" style="fill: rgb(246, 165, 107);">
				</path>
			</g>
		</g>
		<g id="swac-facialhair">
		</g>
		<g id="swac-nose">
			<g class="swac-base">
				<path class="shadow-obj-2x" d="M271.225,224.469c0,6.085-6.6,11.017-14.752,11.017s-14.752-4.932-14.752-11.017,6.6-32.691,14.752-32.691S271.225,218.385,271.225,224.469Z" style="fill: rgb(243, 133, 118);">
				</path>
				<circle class="shadow-obj" cx="256.556" cy="221.66" r="8.028" style="fill: rgb(245, 154, 142);">
				</circle>
			</g>
		</g>
		<g id="swac-eyes">
			<g id="swac-eye">
				<g class="swac-base">
					<g class="eye-left">
						<path class="white-obj" d="M204.824,171.388h17.2a12.582,12.582,0,0,1,12.582,12.582v12.669a16.873,16.873,0,0,1-16.873,16.873h-8.56a17.292,17.292,0,0,1-17.292-17.292v-11.9A12.938,12.938,0,0,1,204.824,171.388Z" transform="translate(426.498 384.9) rotate(180)" style="fill: #fff">
						</path>
						<path class="col-obj" d="M213.249,207.342h0a7.242,7.242,0,0,0,7.221-7.221V184.175a7.242,7.242,0,0,0-7.221-7.221h0a7.243,7.243,0,0,0-7.221,7.221V200.12A7.243,7.243,0,0,0,213.249,207.342Z" style="fill: rgb(78, 52, 12);">
						</path>
					</g>
					<g class="eye-right">
						<path class="white-obj" d="M295.037,171.388H303.6a16.874,16.874,0,0,1,16.874,16.874V200.93a12.583,12.583,0,0,1-12.583,12.583h-17.2a12.938,12.938,0,0,1-12.938-12.938v-11.9A17.291,17.291,0,0,1,295.037,171.388Z" style="fill: #fff">
						</path>
						<path class="col-obj" d="M299.108,207.342h0a7.243,7.243,0,0,1-7.221-7.221V184.175a7.243,7.243,0,0,1,7.221-7.221h0a7.243,7.243,0,0,1,7.221,7.221V200.12A7.243,7.243,0,0,1,299.108,207.342Z" style="fill: rgb(78, 52, 12);">
						</path>
					</g>
				</g>
			</g>
		</g>
		<g id="swac-hair-front">
			<g class="element-front">
				<path class="col-obj" d="M290.068,43.342c.245,0,.486-.019.732-.019h-2.37c.246,0,.487.016.732.019a101.555,101.555,0,0,0-19.248,2.026l-.249.05q-2.069.427-4.1.939c-.205.051-.412.1-.616.152q-1.842.479-3.646,1.032c-.276.084-.557.159-.832.245-1.423.449-2.832.923-4.216,1.438-1.384-.514-2.792-.989-4.216-1.438-.275-.086-.555-.162-.831-.245q-1.806-.55-3.647-1.032c-.2-.053-.41-.1-.615-.152q-2.029-.513-4.1-.939l-.25-.05a101.552,101.552,0,0,0-19.247-2.026c.245,0,.487-.019.732-.019h-2.37c.246,0,.487.016.732.019-40.193.388-72.514,15.132-72.514,55.536v73.464l12.217,12.068c3.158,3.119,9.577,1.2,9.577-3.234V148.439a77.125,77.125,0,0,0,19.446,2.161,85.538,85.538,0,0,0,65.084-29.951,85.744,85.744,0,0,0,85.595,27.468v32.851a5,5,0,0,0,8.512,3.556l12.217-12.068V98.878C362.582,58.475,330.261,43.731,290.068,43.342Z" style="fill: rgb(58, 51, 35);">
				</path>
				<path class="light-obj" d="M256.4,82.887c.248,0,.493-.019.741-.019h-2.4c.249,0,.494.017.742.019-40.749.394-73.515,15.341-73.515,56.3V150.1a86.512,86.512,0,0,0,9.209.5,85.7,85.7,0,0,0,23.069-3.148v8.057a2.964,2.964,0,0,0,5.06,2.1l36.955-36.955A85.537,85.537,0,0,0,321.343,150.6q4.339,0,8.569-.427V139.19C329.912,98.229,297.146,83.281,256.4,82.887Z" style="fill: rgb(74, 65, 45);">
				</path>
			</g>
		</g>
		<g id="swac-helmet-front">
			<g class="element-front">
			</g>
		</g>
		<g id="swac-glasses">
		</g>
	</g>
	<g id="swac-weapon">
	</g>
	<defs id="defs">
		<defs class="fragmentclippath">
			<clipPath class="clippath-face" id="clippath-face" data-clip="face">
				<path class="col-obj" d="M257.355,65.059c.284,0,.567-.022.853-.022h-2.761c.286,0,.568.019.852.022-46.824.452-84.474,17.629-84.474,64.7V250.542c0,47.068,37.65,64.244,84.474,64.7-.285,0-.567.022-.852.022h2.761c-.287,0-.569-.019-.853-.022,46.824-.453,84.475-17.629,84.475-64.7V129.755C341.83,82.688,304.179,65.512,257.355,65.059Z" style="fill: #f9b382">
				</path>
				<path class="light-obj" d="M256.4,82.937c.249,0,.494-.019.742-.019h-2.4c.245,0,.489.016.738.019-40.75.394-73.515,15.341-73.515,56.3V243.729c0,40.961,32.765,55.908,73.515,56.3-.249,0-.494.019-.738.019h2.4c-.248,0-.492-.016-.742-.019,40.749-.394,73.517-15.341,73.517-56.3V139.239C329.913,98.278,297.145,83.331,256.4,82.937Z" style="fill: #fcc39d">
				</path>
			</clipPath>
		</defs>
	</defs>
	<desc>
		Created with Snap
	</desc>
</svg>
