<svg xmlns="http://www.w3.org/2000/svg" id="swac-preview" viewBox="0 0 512 512" height="430px" width="430px" style="opacity: 1;">
	<g id="swac-helmet-dummy">
	</g>
	<g id="swac-background">
		<g class="swac-base">
			<rect class="col-obj" width="512" height="512" style="fill: rgb(138, 138, 182);">
			</rect>
			<circle class="light-obj" cx="256.118" cy="255.7" r="213.7" style="fill: rgb(154, 154, 192);">
			</circle>
		</g>
	</g>
	<g id="swac-helmet-rear">
		<g class="element-rear">
		</g>
	</g>
	<g id="swac-hair-rear">
		<g class="element-rear" style="display: block;">
			<path class="shadow-obj" d="M266.7,16.963H246.223A75.435,75.435,0,0,0,187.8,44.311a11.825,11.825,0,0,0,.789,15.867h0a11.828,11.828,0,0,0,8.392,3.464l118.684-.3a11.82,11.82,0,0,0,8.331-3.464l.056-.055a11.819,11.819,0,0,0,.747-15.917A75.456,75.456,0,0,0,266.7,16.963Z" style="fill: rgb(42, 37, 25);">
			</path>
			<path class="red-obj" d="M252.838,40.661h7.337a20.48,20.48,0,0,1,20.48,20.48V91.007a20.48,20.48,0,0,1-20.48,20.48h-7.34a20.476,20.476,0,0,1-20.476-20.476V61.141a20.48,20.48,0,0,1,20.48-20.48Z" style="fill: #941e23">
			</path>
		</g>
	</g>
	<g id="swac-bodies">
		<g id="swac-body">
			<path class="col-obj" d="M383.874,496.577V476.6H384V450.573a110.846,110.846,0,0,0-43.47-88.171h0l-.007-.005q-1.769-1.357-3.594-2.642l-.057-.041q-1.781-1.253-3.612-2.437l-.172-.112q-1.754-1.129-3.552-2.191c-.115-.068-.229-.138-.344-.206q-1.7-1-3.441-1.932c-.182-.1-.362-.2-.545-.3-1.091-.58-2.194-1.137-3.306-1.681-.252-.124-.5-.253-.754-.375-1.051-.5-2.114-.984-3.183-1.455-.315-.139-.625-.287-.941-.423-1.055-.453-2.123-.881-3.2-1.3-.327-.129-.649-.268-.978-.394q-2.09-.8-4.219-1.515-.855-.287-1.693-.606c-.188-.071-.372-.15-.559-.224-.368-.145-.736-.29-1.1-.444-.221-.094-.438-.195-.657-.292-.322-.143-.646-.285-.964-.435-.232-.11-.461-.226-.69-.339-.3-.147-.6-.294-.892-.447-.236-.123-.469-.251-.7-.378-.282-.153-.563-.306-.841-.464-.236-.135-.469-.274-.7-.413-.268-.16-.536-.32-.8-.484-.235-.146-.467-.3-.7-.447-.256-.166-.511-.333-.763-.5q-.348-.236-.691-.478-.368-.259-.73-.525-.343-.252-.68-.51t-.694-.541q-.338-.269-.671-.542c-.223-.184-.442-.371-.661-.558s-.441-.379-.658-.572-.418-.379-.625-.571-.436-.4-.649-.608c-.2-.19-.391-.385-.586-.578-.214-.214-.429-.426-.639-.644-.183-.19-.362-.385-.542-.578-.214-.229-.429-.457-.638-.691-.163-.182-.32-.368-.479-.552-.218-.251-.437-.5-.65-.757-.129-.155-.252-.315-.379-.472a46.431,46.431,0,0,1-3.328-4.687c-.075-.121-.153-.239-.227-.361-.205-.338-.4-.681-.6-1.024-.088-.154-.179-.305-.266-.46-.187-.334-.366-.674-.544-1.013-.088-.167-.178-.333-.264-.5-.172-.336-.337-.677-.5-1.018-.085-.176-.171-.351-.253-.528-.158-.34-.31-.683-.46-1.027-.079-.182-.159-.363-.237-.546-.146-.346-.286-.7-.424-1.046-.072-.183-.144-.367-.214-.551q-.2-.53-.388-1.066-.1-.278-.192-.558-.182-.542-.352-1.089-.085-.276-.167-.553-.165-.557-.317-1.119c-.048-.18-.094-.36-.141-.54-.1-.384-.194-.768-.282-1.155-.039-.172-.076-.344-.113-.516-.087-.4-.171-.8-.247-1.2-.03-.159-.057-.32-.086-.48-.075-.418-.148-.837-.212-1.258-.02-.135-.037-.271-.056-.406-.064-.448-.125-.9-.176-1.347-.01-.092-.018-.185-.027-.278-.053-.494-.1-.989-.139-1.487h0c-.086-1.158-.134-2.324-.134-3.5V249.994H234.8V301.5c0,1.149-.047,2.29-.129,3.424h0a46.779,46.779,0,0,1-.658,5.11l0,.022q-.149.8-.327,1.6l-.024.107q-.172.765-.369,1.521c-.014.055-.028.11-.043.165q-.195.737-.413,1.465l-.058.192q-.217.715-.457,1.421l-.073.213q-.24.7-.5,1.384c-.028.074-.057.147-.085.22q-.264.683-.548,1.358c-.03.071-.061.141-.092.212q-.29.677-.6,1.344c-.028.061-.058.121-.087.182-.214.453-.433.9-.661,1.349-.02.039-.041.077-.061.116a46.484,46.484,0,0,1-5.273,8.054c-.068.084-.134.17-.2.253-.25.3-.509.6-.767.9-.121.139-.239.28-.361.417-.237.266-.481.527-.725.788-.15.161-.3.324-.452.483-.232.241-.469.477-.706.714-.173.172-.345.345-.52.515-.23.222-.464.439-.7.656-.19.176-.38.352-.573.525-.23.206-.464.409-.7.61-.206.177-.412.352-.621.526q-.347.287-.7.567-.33.263-.665.52t-.7.528q-.351.258-.707.509t-.708.492c-.247.167-.5.331-.746.494s-.471.306-.709.455c-.261.163-.526.322-.791.48-.236.141-.471.282-.71.419-.275.157-.554.309-.832.461-.235.128-.469.258-.707.382-.293.153-.591.3-.888.446-.23.114-.459.231-.692.341-.316.15-.637.291-.957.434-.221.1-.439.2-.662.3-.359.153-.723.3-1.087.441-.19.075-.377.155-.568.228q-.837.319-1.69.608-2.12.714-4.2,1.514c-.341.131-.674.276-1.014.41-1.054.416-2.105.838-3.143,1.285-.321.139-.636.289-.955.431-1.057.468-2.11.944-3.149,1.443-.257.124-.509.255-.764.381-1.1.541-2.2,1.1-3.281,1.672-.18.1-.357.2-.536.294q-1.736.937-3.435,1.932c-.107.063-.213.128-.32.192q-1.8,1.067-3.562,2.2l-.137.09q-1.841,1.19-3.631,2.451l-.018.013a110.864,110.864,0,0,0-47.078,90.823V454h-.152v42.559c-.035,5.259-.195,10.4-.457,15.438h43.368c.235-4.984.384-10.047.418-15.212V486.045c1.59,1.8,3.336,3.907,4.976,6.157s3.115,9.615,4.392,19.8H331.5c1.276-10.184,2.742-17.536,4.391-19.8,1.532-2.1,3.154-4.072,4.658-5.792v10.377c.034,5.166.183,10.229.418,15.213h43.369C384.069,506.962,383.91,501.831,383.874,496.577Z" style="fill: rgb(150, 60, 63);">
			</path>
			<path class="shadow-obj" d="M277.252,301.426V249.994H234.8V301.5c0,1.347-.067,2.683-.18,4.007a50.439,50.439,0,0,0,42.884.728A46.866,46.866,0,0,1,277.252,301.426Z" style="fill: rgb(132, 53, 55);">
			</path>
			<path class="light-obj" d="M263.691,361.46H247.985a56.522,56.522,0,1,0,0,113.044h15.706a56.522,56.522,0,0,0,0-113.044Z" style="fill: rgb(168, 67, 71);">
			</path>
		</g>
		<g id="swac-clothes">
			<g class="swac-base">
				<path class="element-dummy" d="M383.874,496.577V476.6H384V450.573a110.846,110.846,0,0,0-43.47-88.171h0l-.007-.005q-1.769-1.357-3.594-2.642l-.057-.041q-1.781-1.253-3.612-2.437l-.172-.112q-1.754-1.129-3.552-2.191c-.115-.068-.229-.138-.344-.206q-1.7-1-3.441-1.932c-.182-.1-.362-.2-.545-.3-1.091-.58-2.194-1.137-3.306-1.681-.252-.124-.5-.253-.754-.375-1.051-.5-2.114-.984-3.183-1.455-.315-.139-.625-.287-.941-.423-1.055-.453-2.123-.881-3.2-1.3-.327-.129-.649-.268-.978-.394q-2.09-.8-4.219-1.515-.855-.287-1.693-.606c-.188-.071-.372-.15-.559-.224-.368-.145-.736-.29-1.1-.444-.221-.094-.438-.195-.657-.292-.322-.143-.646-.285-.964-.435-.232-.11-.461-.226-.69-.339-.3-.147-.6-.294-.892-.447-.236-.123-.469-.251-.7-.378-.282-.153-.563-.306-.841-.464-.236-.135-.469-.274-.7-.413-.268-.16-.536-.32-.8-.484-.235-.146-.467-.3-.7-.447-.256-.166-.511-.333-.763-.5q-.348-.236-.691-.478-.368-.259-.73-.525-.343-.252-.68-.51t-.694-.541q-.338-.269-.671-.542c-.223-.184-.442-.371-.661-.558s-.441-.379-.658-.572-.418-.379-.625-.571-.436-.4-.649-.608c-.2-.19-.391-.385-.586-.578-.214-.214-.429-.426-.639-.644-.183-.19-.362-.385-.542-.578-.214-.229-.429-.457-.638-.691-.163-.182-.32-.368-.479-.552-.218-.251-.437-.5-.65-.757-.129-.155-.252-.315-.379-.472a46.431,46.431,0,0,1-3.328-4.687c-.075-.121-.153-.239-.227-.361-.205-.338-.4-.681-.6-1.024-.088-.154-.179-.305-.266-.46-.187-.334-.366-.674-.544-1.013-.088-.167-.178-.333-.264-.5-.172-.336-.337-.677-.5-1.018-.085-.176-.171-.351-.253-.528-.158-.34-.31-.683-.46-1.027-.079-.182-.159-.363-.237-.546-.146-.346-.286-.7-.424-1.046-.072-.183-.144-.367-.214-.551q-.2-.53-.388-1.066-.1-.278-.192-.558-.182-.542-.352-1.089-.085-.276-.167-.553-.165-.557-.317-1.119c-.048-.18-.094-.36-.141-.54-.1-.384-.194-.768-.282-1.155-.039-.172-.076-.344-.113-.516-.087-.4-.171-.8-.247-1.2-.03-.159-.057-.32-.086-.48-.075-.418-.148-.837-.212-1.258-.02-.135-.037-.271-.056-.406-.064-.448-.125-.9-.176-1.347-.01-.092-.018-.185-.027-.278-.053-.494-.1-.989-.139-1.487h0c-.086-1.158-.134-2.324-.134-3.5v-6.842c32.36-11.992,64.543-48.516,64.543-91.407V148.053c-.75-57.669-39.421-84.132-86-84.132-47.052,0-85.222,26.993-85.222,85.877v53.379c0,43.147,31.916,79.848,64.236,91.617V301.5c0,1.149-.047,2.29-.129,3.424h0a46.779,46.779,0,0,1-.658,5.11l0,.022q-.149.8-.327,1.6l-.024.107q-.172.765-.369,1.521c-.014.055-.028.11-.043.165q-.195.737-.413,1.465l-.058.192q-.217.715-.457,1.421l-.073.213q-.24.7-.5,1.384c-.028.074-.057.147-.085.22q-.264.683-.548,1.358c-.03.071-.061.141-.092.212q-.29.677-.6,1.344c-.028.061-.058.121-.087.182-.214.453-.433.9-.661,1.349-.02.039-.041.077-.061.116a46.484,46.484,0,0,1-5.273,8.054c-.068.084-.134.17-.2.253-.25.3-.509.6-.767.9-.121.139-.239.28-.361.417-.237.266-.481.527-.725.788-.15.161-.3.324-.452.483-.232.241-.469.477-.706.714-.173.172-.345.345-.52.515-.23.222-.464.439-.7.656-.19.176-.38.352-.573.525-.23.206-.464.409-.7.61-.206.177-.412.352-.621.526q-.347.287-.7.567-.33.263-.665.52t-.7.528q-.351.258-.707.509t-.708.492c-.247.167-.5.331-.746.494s-.471.306-.709.455c-.261.163-.526.322-.791.48-.236.141-.471.282-.71.419-.275.157-.554.309-.832.461-.235.128-.469.258-.707.382-.293.153-.591.3-.888.446-.23.114-.459.231-.692.341-.316.15-.637.291-.957.434-.221.1-.439.2-.662.3-.359.153-.723.3-1.087.441-.19.075-.377.155-.568.228q-.837.319-1.69.608-2.12.714-4.2,1.514c-.341.131-.674.276-1.014.41-1.054.416-2.105.838-3.143,1.285-.321.139-.636.289-.955.431-1.057.468-2.11.944-3.149,1.443-.257.124-.509.255-.764.381-1.1.541-2.2,1.1-3.281,1.672-.18.1-.357.2-.536.294q-1.736.937-3.435,1.932c-.107.063-.213.128-.32.192q-1.8,1.067-3.562,2.2l-.137.09q-1.841,1.19-3.631,2.451l-.018.013a110.864,110.864,0,0,0-47.078,90.823V454h-.152v42.559c-.035,5.259-.195,10.4-.457,15.438h43.368c.235-4.984.384-10.047.418-15.212V486.045c1.59,1.8,3.336,3.907,4.976,6.157s3.115,9.615,4.392,19.8H331.5c1.276-10.184,2.742-17.536,4.391-19.8,1.532-2.1,3.154-4.072,4.658-5.792v10.377c.034,5.166.183,10.229.418,15.213h43.369C384.069,506.962,383.91,501.831,383.874,496.577Z" data-default-color="#744f2b">
				</path>
				<path class="col-obj" d="M384.332,512c-.263-5.038-.422-10.169-.458-15.423V476.6H384V450.573a110.691,110.691,0,0,0-27.316-73L258.06,428.384l-1.4.7-88.078-64.157c-.925.764-1.834,1.549-2.734,2.342l-.3-.069a112.744,112.744,0,0,0-37.286,83.374V454h-.152v42.559c-.035,5.259-.195,10.4-.457,15.438h44.073c.01-5.987.027-11.891.065-17.658V486.45c1.5,1.712,3.1,3.664,4.625,5.751,1.649,2.263,3.115,9.615,4.392,19.8H331.5c1.276-10.184,2.742-17.536,4.391-19.8,1.406-1.928,2.884-3.737,4.281-5.353v7.493c.038,5.767.054,11.671.065,17.658h44.1Z" style="fill: rgb(74, 72, 76);">
				</path>
				<path class="col-obj" d="M308.046,345.025A108.259,108.259,0,0,1,337.665,360.4l11.577-23.065h-55.2A44.9,44.9,0,0,0,308.046,345.025Z" style="fill: rgb(74, 72, 76);">
				</path>
				<path class="col-obj" d="M204.35,345.075a44.881,44.881,0,0,0,14.03-7.742H162.557L176.286,359.4A108.2,108.2,0,0,1,204.35,345.075Z" style="fill: rgb(74, 72, 76);">
				</path>
				<path class="shadow-obj-2x" d="M341.488,484.806a53.987,53.987,0,0,1,6.465-5.815,40.327,40.327,0,0,0,15.853-31.738c0-15.561-9.239-29.162-22.766-36.146-4.3-4.788-10.6-7.689-19.743-7.865l0-.021H191.278l0,.021c-9.411.18-16.005,3.242-20.534,8.282-13.095,7.1-21.971,20.473-21.971,35.729A40.337,40.337,0,0,0,164.8,479.118a51.926,51.926,0,0,1,6.387,5.784,89.14,89.14,0,0,1,6.47,7.8c1.614,2.215,3.05,9.371,4.3,19.3H330.628c1.252-9.924,2.688-17.081,4.3-19.3A89.791,89.791,0,0,1,341.488,484.806Z" style="fill: rgb(48, 47, 50);">
				</path>
				<path class="col-obj" d="M217.685,512h76.8a47.32,47.32,0,0,0-38.177-19.294h-.447A47.32,47.32,0,0,0,217.685,512Z" style="fill: rgb(74, 72, 76);">
				</path>
				<path class="light-obj-2x" d="M256.946,429.226l50.69-43.259H201.792l55.023,43.26A.093.093,0,0,0,256.946,429.226Z" style="fill: rgb(99, 97, 102);">
				</path>
				<path class="shadow-obj" d="M349.472,337.333,345.721,341l-88.767,88.219h0l-.007.007a.093.093,0,0,1-.131,0l-.134-.133L167.4,341l-3.75-3.667A14.242,14.242,0,0,0,149.4,351.578v39.585l107.42,38.108a.176.176,0,0,0,.118,0l106.777-38.108V351.578A14.244,14.244,0,0,0,349.472,337.333Z" style="fill: rgb(61, 60, 63);">
				</path>
			</g>
		</g>
	</g>
	<g id="swac-faces">
		<g id="swac-ears">
			<g class="swac-base" style="display: block;">
				<g class="ears-right">
					<circle class="shadow-obj-2x" cx="320.577" cy="190.528" r="42.948" style="fill: rgb(114, 45, 48);">
					</circle>
				</g>
				<g class="ears-left">
					<circle class="shadow-obj-2x" cx="192.998" cy="190.528" r="42.949" style="fill: rgb(114, 45, 48);">
					</circle>
				</g>
				<path class="element-dummy" d="M341.293,148c-.75-57.642-39.4-84.092-85.964-84.092-47.029,0-85.183,26.98-85.183,85.836V203.1c0,52.54,47.345,95.528,85.09,95.528s86.056-42.988,86.056-95.528Z" style="fill: #fff">
				</path>
			</g>
		</g>
		<g id="swac-face">
			<g class="swac-base">
				<path class="col-obj" d="M341.293,148c-.75-57.642-39.4-84.092-85.964-84.092-47.029,0-85.183,26.98-85.183,85.836V203.1c0,52.54,47.345,95.528,85.09,95.528s86.056-42.988,86.056-95.528Z" style="fill: rgb(150, 60, 63);">
				</path>
				<path class="light-obj" d="M331.616,168.878c-.659-54.626-34.7-84.507-75.7-84.507-41.414,0-75.011,30.382-75.011,86.159v25.287c0,49.791,41.69,90.529,74.929,90.529s75.78-40.739,75.78-90.529Z" style="fill: rgb(168, 67, 71);">
				</path>
			</g>
		</g>
		<g id="swac-tattoo-rear">
			<g class="element-rear">
			</g>
		</g>
		<g id="swac-tattoo-front">
			<g class="element-front">
				<path class="shadow-obj-2x" d="M340.36,245.338,304.185,209.18v-1.931l37.108-37.083V153.16L308.24,186.2a2.376,2.376,0,0,1-4.055-1.681V149.69a6.019,6.019,0,0,0-6.019-6.019h0a6.019,6.019,0,0,0-6.019,6.019V301.6a93.4,93.4,0,0,0,12.038-5.718V231.914a2.376,2.376,0,0,1,4.055-1.681l28.617,28.608A69.537,69.537,0,0,0,340.36,245.338Z" style="fill: rgb(114, 45, 48); opacity: 0.6;">
				</path>
				<path class="shadow-obj-2x" d="M207.3,209.18,171.07,245.394a70.5,70.5,0,0,0,3.463,13.544l28.717-28.706a2.376,2.376,0,0,1,4.055,1.681v64.334a91.814,91.814,0,0,0,12.038,5.661V149.69a6.019,6.019,0,0,0-6.019-6.019h0a6.019,6.019,0,0,0-6.019,6.019v34.826a2.376,2.376,0,0,1-4.055,1.681l-33.1-33.087v17.007L207.3,207.249Z" style="fill: rgb(114, 45, 48); opacity: 0.6;">
				</path>
				<path class="shadow-obj-2x" d="M263.658,160.161a7.484,7.484,0,0,1-7.484,7.484h0a7.484,7.484,0,0,1-7.483-7.484V118.254a7.484,7.484,0,0,1,7.483-7.484h0a7.484,7.484,0,0,1,7.484,7.484Z" style="fill: rgb(114, 45, 48); opacity: 0.6;">
				</path>
				<path class="shadow-obj-2x" d="M247.184,308.307c2.621.212,5.216.321,7.766.321,3.059,0,6.188-.154,9.355-.459v-47H247.184Z" style="fill: rgb(114, 45, 48); opacity: 0.6;">
				</path>
			</g>
		</g>
		<g id="swac-nose">
			<g class="swac-base">
				<path class="shadow-obj-2x" d="M271.225,224.469c0,6.085-6.6,11.017-14.752,11.017s-14.752-4.932-14.752-11.017,6.6-32.691,14.752-32.691S271.225,218.385,271.225,224.469Z" style="fill: rgb(95, 0, 57);">
				</path>
				<circle class="shadow-obj" cx="256.556" cy="221.66" r="8.028" style="fill: rgb(120, 0, 73);">
				</circle>
			</g>
		</g>
		<g id="swac-eyes">
			<g id="swac-eye">
				<g class="swac-base">
					<g class="eye-left">
						<path class="hair-obj" d="M183.867,192.307H226.93L215.4,213.512H205.073A21.205,21.205,0,0,1,183.867,192.307Z" style="fill: rgb(95, 38, 40);">
						</path>
						<path class="white-obj" d="M204.824,171.388h17.2a12.582,12.582,0,0,1,12.582,12.582v12.669a16.873,16.873,0,0,1-16.873,16.873h-8.56a17.292,17.292,0,0,1-17.292-17.292v-11.9A12.938,12.938,0,0,1,204.824,171.388Z" transform="translate(426.498 384.9) rotate(180)" style="fill: #fff">
						</path>
						<path class="col-obj" d="M213.249,207.342h0a7.242,7.242,0,0,0,7.221-7.221V184.175a7.242,7.242,0,0,0-7.221-7.221h0a7.243,7.243,0,0,0-7.221,7.221V200.12A7.243,7.243,0,0,0,213.249,207.342Z" style="fill: rgb(109, 58, 73);">
						</path>
					</g>
					<g class="eye-right">
						<path class="hair-obj" d="M328.49,192.307H285.428l11.534,21.206h10.322A21.205,21.205,0,0,0,328.49,192.307Z" style="fill: rgb(95, 38, 40);">
						</path>
						<path class="white-obj" d="M295.037,171.388H303.6a16.874,16.874,0,0,1,16.874,16.874V200.93a12.583,12.583,0,0,1-12.583,12.583h-17.2a12.938,12.938,0,0,1-12.938-12.938v-11.9A17.291,17.291,0,0,1,295.037,171.388Z" style="fill: #fff">
						</path>
						<path class="col-obj" d="M299.108,207.342h0a7.243,7.243,0,0,1-7.221-7.221V184.175a7.243,7.243,0,0,1,7.221-7.221h0a7.243,7.243,0,0,1,7.221,7.221V200.12A7.243,7.243,0,0,1,299.108,207.342Z" style="fill: rgb(109, 58, 73);">
						</path>
					</g>
				</g>
			</g>
		</g>
		<g id="swac-mouth">
			<g class="swac-base">
				<path class="shadow-obj" d="M240.158,251.575c0,5.983,7.172,10.832,16.02,10.832s16.021-4.85,16.021-10.832Z" style="fill: rgb(92, 49, 62);">
				</path>
				<path class="col-obj" d="M256.178,244.354c-11.911,0-21.567,5.1-21.567,11.392h43.134C277.746,249.454,268.09,244.354,256.178,244.354Z" style="fill: rgb(109, 58, 73);">
				</path>
			</g>
		</g>
		<g id="swac-hair-front">
			<g class="element-front" style="display: block;">
				<path class="col-obj" d="M255.329,63.91a100.533,100.533,0,0,0-37.949,6.942l14.366,39.019a25.56,25.56,0,0,0,47.972,0L294,71.085A101.4,101.4,0,0,0,255.329,63.91Z" style="fill: rgb(58, 51, 35);">
				</path>
			</g>
		</g>
		<g id="swac-horns">
			<g class="swac-base">
				<path class="col-obj" d="M336.031,143.15v13.2a3.983,3.983,0,0,0,5.157,3.811c9.664-3.025,21.795-6.516,21.795-10.328,0-3.882-11.973-7.43-21.8-10.493A3.985,3.985,0,0,0,336.031,143.15Z" style="fill: rgb(178, 145, 70);">
				</path>
				<path class="col-obj" d="M149.317,149.83c0,3.771,11.989,7.227,21.491,10.23a3.982,3.982,0,0,0,5.164-3.809V143.243a3.983,3.983,0,0,0-5.163-3.81C161.146,142.474,149.317,145.989,149.317,149.83Z" style="fill: rgb(178, 145, 70);">
				</path>
				<path class="col-obj" d="M213.443,101.1a10.5,10.5,0,0,1-14.844,0c-4.1-4.1-10.921-17.567-6.823-21.667s17.568,2.726,21.667,6.824A10.5,10.5,0,0,1,213.443,101.1Z" style="fill: rgb(178, 145, 70);">
				</path>
				<path class="col-obj" d="M299.766,101.1a10.5,10.5,0,0,0,14.844,0c4.1-4.1,10.921-17.567,6.823-21.667s-17.569,2.726-21.668,6.824A10.5,10.5,0,0,0,299.766,101.1Z" style="fill: rgb(178, 145, 70);">
				</path>
				<path class="col-obj" d="M213.443,125.179a10.5,10.5,0,0,1-14.844,0c-4.1-4.1-10.921-17.567-6.823-21.667s17.568,2.726,21.667,6.824A10.5,10.5,0,0,1,213.443,125.179Z" style="fill: rgb(178, 145, 70);">
				</path>
				<path class="col-obj" d="M299.766,125.179a10.5,10.5,0,0,0,14.844,0c4.1-4.1,10.921-17.567,6.823-21.667s-17.569,2.726-21.668,6.824A10.5,10.5,0,0,0,299.766,125.179Z" style="fill: rgb(178, 145, 70);">
				</path>
			</g>
		</g>
		<g id="swac-helmet-front">
			<g class="element-front">
			</g>
		</g>
		<g id="swac-glasses">
		</g>
	</g>
	<g id="swac-weapon">
	</g>
	<defs id="defs">
		<defs class="fragmentclippath">
			<clipPath class="clippath-face" id="clippath-face" data-clip="face">
				<path class="col-obj" d="M341.293,148c-.75-57.642-39.4-84.092-85.964-84.092-47.029,0-85.183,26.98-85.183,85.836V203.1c0,52.54,47.345,95.528,85.09,95.528s86.056-42.988,86.056-95.528Z" style="fill: #f9b382">
				</path>
				<path class="light-obj" d="M331.616,168.878c-.659-54.626-34.7-84.507-75.7-84.507-41.414,0-75.011,30.382-75.011,86.159v25.287c0,49.791,41.69,90.529,74.929,90.529s75.78-40.739,75.78-90.529Z" style="fill: #fcc39d">
				</path>
			</clipPath>
		</defs>
	</defs>
	<desc>
		Created with Snap
	</desc>
</svg>
