<svg xmlns="http://www.w3.org/2000/svg" id="swac-preview" viewBox="0 0 512 512" height="430px" width="430px" style="opacity: 1;">
	<g id="swac-helmet-dummy">
	</g>
	<g id="swac-background">
		<g class="swac-base">
			<rect class="col-obj" width="512" height="512" style="fill: rgb(138, 138, 182);">
			</rect>
			<circle class="light-obj" cx="256.118" cy="255.7" r="213.7" style="fill: rgb(154, 154, 192);">
			</circle>
		</g>
	</g>
	<g id="swac-helmet-rear">
		<g class="element-rear">
		</g>
	</g>
	<g id="swac-hair-rear">
		<g class="element-rear" style="display: block;">
		</g>
	</g>
	<g id="swac-bodies">
		<g id="swac-body">
			<path class="col-obj" d="M447.071,461.375l-24.456-74.756c-9.7-31.778-34.185-44.112-72.059-45.412-1.383-.076-2.776-.122-4.179-.122H299.07V250.72H213.675v90.364H166.621c-.866,0-1.727.022-2.586.054-.532.019-1.064.039-1.593.069-18.725.643-34.169,3.989-46.18,11.041-10.095,6.776-18.051,17.5-25.88,34.371L65.927,461.375c-4.94,16.9-9.158,33.744-12.766,50.625h65.378q3.836-16.312,8.564-32.553a3.963,3.963,0,0,1,7.736.8L137.162,512H375.836l2.324-31.753a3.963,3.963,0,0,1,7.736-.8Q390.642,495.7,394.46,512h65.378C456.229,495.119,452.011,478.277,447.071,461.375Z" style="fill: rgb(150, 60, 63);">
			</path>
			<path class="light-obj" d="M362.6,476.193V383.568H149.676v92.3A64.891,64.891,0,0,0,160.6,512h191.65a64.852,64.852,0,0,0,10.814-32.306A13.642,13.642,0,0,1,362.6,476.193Z" style="fill: rgb(168, 67, 71);">
			</path>
			<path class="shadow-obj" d="M213.675,317.467c11.192,6.688,26.118,9.6,42.565,9.763-.213,0-.423.016-.636.016h2.059c-.214,0-.423-.014-.636-.016,16.229-.156,30.976-3,42.118-9.5V250.72H213.675Z" style="fill: rgb(132, 53, 55);">
			</path>
		</g>
		<g id="swac-clothes">
			<g class="swac-base">
				<path class="element-dummy" d="M447.071,461.375l-24.456-74.756c-9.7-31.778-34.185-44.112-72.059-45.412-1.383-.076-2.776-.122-4.179-.122H299.07V309.045c25.574-8.576,42.761-26.715,42.761-58.5V129.755c0-47.068-37.651-64.244-84.475-64.7.284,0,.566-.022.853-.022h-2.761c.286,0,.568.019.852.022-46.824.452-84.474,17.629-84.474,64.7V250.542c0,31.41,16.779,49.494,41.85,58.193v32.349H166.621c-.866,0-1.727.022-2.586.054-.532.019-1.064.039-1.593.069-18.725.643-34.169,3.989-46.18,11.041-10.095,6.776-18.051,17.5-25.88,34.371L65.927,461.375c-4.94,16.9-9.158,33.744-12.766,50.625h65.378q3.836-16.312,8.564-32.553a3.963,3.963,0,0,1,7.736.8L137.162,512H375.836l2.324-31.753a3.963,3.963,0,0,1,7.736-.8Q390.642,495.7,394.46,512h65.378C456.229,495.119,452.011,478.277,447.071,461.375Z" data-default-color="#1a181a">
				</path>
				<path class="light-obj" d="M348.152,341.112c-.59-.015-1.181-.027-1.775-.027H299.961l-.985.946-20.982,20.982a30.63,30.63,0,0,1-43.238.078l-21.214-21.06-3.939-.946H166.621c-.866,0-1.727.022-2.586.054-.532.019-1.064.039-1.593.069a151.751,151.751,0,0,0-16.195,1.373V512h217.4V342.222q-6.5-.793-13.639-1.03C349.394,341.158,348.773,341.132,348.152,341.112Z" style="fill: rgb(39, 36, 39);">
				</path>
				<path class="shadow-obj" d="M209.6,341.084h-19L246.135,512h20.517l56.73-170.916H299.961l-21.967,21.928a30.63,30.63,0,0,1-43.238.078L212.611,341.1Z" style="fill: rgb(13, 12, 13);">
				</path>
				<path class="col-obj" d="M422.141,386.626l-.008.081-.026-.081c-3.383-11.076-8.567-19.782-15.481-26.491v-.008c-.066-.065-.138-.124-.205-.189q-.815-.782-1.662-1.529c-.122-.106-.242-.215-.363-.32q-2.012-1.738-4.2-3.28c-.139-.1-.279-.192-.418-.288q-.889-.615-1.807-1.2c-.176-.112-.353-.225-.531-.335q-1.032-.64-2.1-1.245c-.063-.036-.125-.074-.189-.11q-1.187-.665-2.42-1.282c-.154-.078-.312-.151-.468-.227q-.987-.486-2-.944-.335-.151-.671-.3-1.035-.453-2.1-.877c-.158-.063-.313-.129-.472-.192q-1.31-.512-2.66-.982c-.146-.051-.3-.1-.443-.147q-1.125-.384-2.277-.739c-.259-.08-.52-.158-.781-.236q-1.079-.321-2.183-.618c-.224-.06-.443-.122-.669-.181q-1.438-.376-2.917-.714c-.089-.02-.18-.038-.27-.058q-1.333-.3-2.7-.566c-.281-.055-.565-.108-.85-.161q-1.155-.217-2.337-.413c-.269-.045-.538-.091-.81-.134-.172-.027-.339-.058-.512-.085v.01c-2.021-.312-4.084-.586-6.2-.81L304.065,512h71.771l2.324-31.753a3.963,3.963,0,0,1,7.736-.8Q390.642,495.7,394.46,512h76.571Z" style="fill: #1a181a">
				</path>
				<path class="col-obj" d="M148.8,342.24c-12.711,1.553-23.58,4.749-32.536,10.008a16.179,16.179,0,0,1-2.511,1.3c-.493.365-.979.744-1.462,1.13-.059.047-.12.091-.179.139-8.482,6.828-15.488,16.922-22.394,31.805L40.827,512h77.711q3.836-16.312,8.564-32.553a3.963,3.963,0,0,1,7.736.8L137.162,512H207.31Z" style="fill: #1a181a">
				</path>
			</g>
		</g>
	</g>
	<g id="swac-faces">
		<g id="swac-ears">
			<g class="swac-base" style="display: block;">
				<g class="ears-right">
					<circle class="shadow-obj-2x" cx="320.577" cy="190.528" r="42.948" style="fill: rgb(114, 45, 48);">
					</circle>
				</g>
				<g class="ears-left">
					<circle class="shadow-obj-2x" cx="192.998" cy="190.528" r="42.949" style="fill: rgb(114, 45, 48);">
					</circle>
				</g>
				<path class="element-dummy" d="M257.355,65.059c.284,0,.567-.022.853-.022h-2.761c.286,0,.568.019.852.022-46.824.452-84.474,17.629-84.474,64.7V250.542c0,47.068,37.65,64.244,84.474,64.7-.285,0-.567.022-.852.022h2.761c-.287,0-.569-.019-.853-.022,46.824-.453,84.475-17.629,84.475-64.7V129.755C341.83,82.688,304.179,65.512,257.355,65.059Z" style="fill: #fff">
				</path>
			</g>
		</g>
		<g id="swac-face">
			<g class="swac-base">
				<path class="col-obj" d="M257.355,65.059c.284,0,.567-.022.853-.022h-2.761c.286,0,.568.019.852.022-46.824.452-84.474,17.629-84.474,64.7V250.542c0,47.068,37.65,64.244,84.474,64.7-.285,0-.567.022-.852.022h2.761c-.287,0-.569-.019-.853-.022,46.824-.453,84.475-17.629,84.475-64.7V129.755C341.83,82.688,304.179,65.512,257.355,65.059Z" style="fill: rgb(150, 60, 63);">
				</path>
				<path class="light-obj" d="M256.4,82.937c.249,0,.494-.019.742-.019h-2.4c.245,0,.489.016.738.019-40.75.394-73.515,15.341-73.515,56.3V243.729c0,40.961,32.765,55.908,73.515,56.3-.249,0-.494.019-.738.019h2.4c-.248,0-.492-.016-.742-.019,40.749-.394,73.517-15.341,73.517-56.3V139.239C329.913,98.278,297.145,83.331,256.4,82.937Z" style="fill: rgb(168, 67, 71);">
				</path>
			</g>
		</g>
		<g id="swac-tattoo-rear">
			<g class="element-rear">
				<path class="black-obj" d="M254.691,221.058l-8.2-7.656a1.879,1.879,0,0,0-3.1.917,59.453,59.453,0,0,0-1.7,9.21c0,.4-.006.842-.009,1.311.3,5.882,6.767,10.584,14.719,10.584,8.145,0,14.748-4.931,14.748-11.014a51.55,51.55,0,0,0-1.792-10.318,1.879,1.879,0,0,0-3.058-.961l-9.1,7.968A1.876,1.876,0,0,1,254.691,221.058Z" style="fill: #000000; opacity: 0.8000000000000001">
				</path>
			</g>
		</g>
		<g id="swac-tattoo-front">
			<g class="element-front">
				<path class="black-obj" d="M258.208,315.26c-.287,0-.569-.019-.853-.022,46.824-.453,84.475,2.371,84.475-44.7V129.755c0-47.068-37.651-64.244-84.475-64.7.284,0,.567-.022.853-.022h-2.761c.286,0,.568.019.852.022-46.824.452-84.474,17.629-84.474,64.7V270.542c0,47.068,37.65,44.244,84.474,44.7-.285,0-.567.022-.852.022ZM307.77,129.27v-8.225a7.519,7.519,0,0,1,2.2-5.317L313.8,111.9l.051,0c10.818,13.989,17.473,33.124,17.76,56.978v10.66l-.01.024-4.629,4.629a3.746,3.746,0,0,1-6.4-2.649V166.749c0-6.694-8.318-10.02-13.016-5.258a7.258,7.258,0,0,1-10.433.25l-4.067-4.066a7.484,7.484,0,0,1,0-10.585l12.5-12.5A7.522,7.522,0,0,0,307.77,129.27ZM180.907,179.537V170.53c0-24.746,6.624-44.48,17.6-58.793l.051,0,4,4a7.519,7.519,0,0,1,2.2,5.317v8.228a7.517,7.517,0,0,0,2.2,5.315l12.478,12.477a7.519,7.519,0,0,1,0,10.633l-4.033,4.033a7.272,7.272,0,0,1-10.446-.245,7.607,7.607,0,0,0-12.983,5.262v14.822a3.746,3.746,0,0,1-6.4,2.649l-4.659-4.659Zm75.354,94.956a7,7,0,0,0-7.182,6.995v4.277l-.039.034a54.194,54.194,0,0,1-10.026-2.61l-.017-.049a3.99,3.99,0,0,0,.582-2.056V255.822l.006-.006h13.293c.008-.026.009.025.017,0l-14.079-16.891a4,4,0,0,0-6.4,1.009L223.18,258.01a4.005,4.005,0,0,1-6.4,1.009l-8.97-8.972a4.038,4.038,0,0,1,0-5.71l8.625-8.626a4.038,4.038,0,0,0,0-5.71l-1.1-1.1a4.038,4.038,0,0,0-5.711,0L201,237.527a4.038,4.038,0,0,1-5.71,0l-7.862-7.862-.008-.012a93.324,93.324,0,0,1-6.3-27.818l.01-.026,4.449-4.449a3.746,3.746,0,0,1,6.4,2.649v8.662a16.906,16.906,0,0,0,16.906,16.906h8.5A17.325,17.325,0,0,0,234.7,208.252V196.381a12.883,12.883,0,0,0-1.08-5.166L233,189.977a12.982,12.982,0,0,0-4.637-4.712l-.006,0-8.686-8.824a3.788,3.788,0,0,1,.017-5.332L233.054,157.7a7.519,7.519,0,0,0,0-10.633L216.576,130.59a7.489,7.489,0,0,1-2.192-5.293V96.682l.015-.028a69.848,69.848,0,0,1,23.669-10.271l.042.033v38.675a8.128,8.128,0,0,0,2.288,5.653l9.508,9.823a8.126,8.126,0,0,0,11.522.157l10.172-9.953a8.126,8.126,0,0,0,2.443-5.808V86.478l.042-.033A70.927,70.927,0,0,1,298.125,97l.015.028v28.253a7.52,7.52,0,0,1-2.2,5.318L279.47,147.065a7.519,7.519,0,0,0,0,10.633L292.837,171.1a3.788,3.788,0,0,1,.017,5.332l-8.727,8.866-.006,0a12.982,12.982,0,0,0-4.526,4.6l-.678,1.327a12.886,12.886,0,0,0-1.071,5.15v11.868a17.326,17.326,0,0,0,17.326,17.326h8.5a16.907,16.907,0,0,0,16.907-16.907v-8.631a3.746,3.746,0,0,1,6.4-2.649l4.415,4.415.01.026a92.331,92.331,0,0,1-7.254,29.838l-.007.011-5.847,5.847a4.038,4.038,0,0,1-5.711,0l-8.627-8.626a4.037,4.037,0,0,0-5.71,0l-1.1,1.1a4.037,4.037,0,0,0,0,5.71l8.626,8.627a4.038,4.038,0,0,1,0,5.71l-8.939,8.939a4.038,4.038,0,0,1-6.451-1.018l-9.2-17.993a4.038,4.038,0,0,0-6.451-1.018L260.69,255.816c.008.025.009-.026.017,0h13.3v25.269a4,4,0,0,0,.286,1.481l-.019.043a56.3,56.3,0,0,1-11.16,3.113l-.039-.034v-3.877A7.211,7.211,0,0,0,256.26,274.494Z" style="fill: #000000; opacity: 0.8000000000000001">
				</path>
				<path class="black-obj" d="M242.541,228.127l.337.337,10.5,10.5a3.957,3.957,0,0,0,5.6,0l11.757-11.757Z" style="fill: #000000; opacity: 0.8000000000000001">
				</path>
				<path class="black-obj" d="M254.811,162.9h2.528a6.762,6.762,0,1,0,0-13.523h-2.528a6.762,6.762,0,0,0,0,13.523Z" style="fill: #000000; opacity: 0.8000000000000001">
				</path>
			</g>
		</g>
		<g id="swac-facialhair">
		</g>
		<g id="swac-nose">
			<g class="swac-base">
				<path class="shadow-obj-2x" d="M271.225,224.469c0,6.085-6.6,11.017-14.752,11.017s-14.752-4.932-14.752-11.017,6.6-32.691,14.752-32.691S271.225,218.385,271.225,224.469Z" style="fill: rgb(95, 0, 57);">
				</path>
				<circle class="shadow-obj" cx="256.556" cy="221.66" r="8.028" style="fill: rgb(120, 0, 73);">
				</circle>
			</g>
		</g>
		<g id="swac-eyes">
			<g id="swac-eye">
				<g class="swac-base">
					<g class="eye-left">
						<path class="white-obj" d="M204.824,171.388h17.2a12.582,12.582,0,0,1,12.582,12.582v12.669a16.873,16.873,0,0,1-16.873,16.873h-8.56a17.292,17.292,0,0,1-17.292-17.292v-11.9A12.938,12.938,0,0,1,204.824,171.388Z" transform="translate(426.498 384.9) rotate(180)" style="fill: #fff">
						</path>
						<path class="col-obj" d="M213.249,207.342h0a7.242,7.242,0,0,0,7.221-7.221V184.175a7.242,7.242,0,0,0-7.221-7.221h0a7.243,7.243,0,0,0-7.221,7.221V200.12A7.243,7.243,0,0,0,213.249,207.342Z" style="fill: rgb(212, 164, 101);">
						</path>
					</g>
					<g class="eye-right">
						<path class="white-obj" d="M295.037,171.388H303.6a16.874,16.874,0,0,1,16.874,16.874V200.93a12.583,12.583,0,0,1-12.583,12.583h-17.2a12.938,12.938,0,0,1-12.938-12.938v-11.9A17.291,17.291,0,0,1,295.037,171.388Z" style="fill: #fff">
						</path>
						<path class="col-obj" d="M299.108,207.342h0a7.243,7.243,0,0,1-7.221-7.221V184.175a7.243,7.243,0,0,1,7.221-7.221h0a7.243,7.243,0,0,1,7.221,7.221V200.12A7.243,7.243,0,0,1,299.108,207.342Z" style="fill: rgb(212, 164, 101);">
						</path>
					</g>
				</g>
			</g>
		</g>
		<g id="swac-mouth">
			<g class="swac-base">
				<path class="shadow-obj-2x" d="M277.736,249.7H234.887a3.159,3.159,0,1,0,0,6.319h42.849a3.159,3.159,0,1,0,0-6.319Z" style="fill: rgb(114, 45, 48);">
				</path>
			</g>
		</g>
		<g id="swac-hair-front">
			<g class="element-front" style="display: block;">
			</g>
		</g>
		<g id="swac-horns">
			<g class="swac-base">
				<path class="col-obj" d="M265.537,96.78a9.2,9.2,0,0,1-18.391,0c0-2.981,3.167-11.927,5.783-18.812a3.65,3.65,0,0,1,6.823,0C262.37,84.852,265.537,93.8,265.537,96.78Z" style="fill: rgb(212, 164, 101);">
				</path>
				<path class="col-obj" d="M211.966,97.511a9.2,9.2,0,0,1-18.391,0c0-2.981,3.167-11.927,5.783-18.811a3.65,3.65,0,0,1,6.823,0C208.8,85.583,211.966,94.53,211.966,97.511Z" style="fill: rgb(212, 164, 101);">
				</path>
				<path class="col-obj" d="M319.107,97.511a9.2,9.2,0,0,1-18.391,0c0-2.981,3.167-11.927,5.783-18.811a3.65,3.65,0,0,1,6.823,0C315.94,85.583,319.107,94.53,319.107,97.511Z" style="fill: rgb(212, 164, 101);">
				</path>
			</g>
		</g>
		<g id="swac-helmet-front">
			<g class="element-front">
			</g>
		</g>
		<g id="swac-glasses">
		</g>
	</g>
	<g id="swac-weapon">
	</g>
	<defs id="defs">
		<defs class="fragmentclippath">
			<clipPath class="clippath-face" id="clippath-face" data-clip="face">
				<path class="col-obj" d="M257.355,65.059c.284,0,.567-.022.853-.022h-2.761c.286,0,.568.019.852.022-46.824.452-84.474,17.629-84.474,64.7V250.542c0,47.068,37.65,64.244,84.474,64.7-.285,0-.567.022-.852.022h2.761c-.287,0-.569-.019-.853-.022,46.824-.453,84.475-17.629,84.475-64.7V129.755C341.83,82.688,304.179,65.512,257.355,65.059Z" style="fill: #f9b382">
				</path>
				<path class="light-obj" d="M256.4,82.937c.249,0,.494-.019.742-.019h-2.4c.245,0,.489.016.738.019-40.75.394-73.515,15.341-73.515,56.3V243.729c0,40.961,32.765,55.908,73.515,56.3-.249,0-.494.019-.738.019h2.4c-.248,0-.492-.016-.742-.019,40.749-.394,73.517-15.341,73.517-56.3V139.239C329.913,98.278,297.145,83.331,256.4,82.937Z" style="fill: #fcc39d">
				</path>
			</clipPath>
		</defs>
	</defs>
	<desc>
		Created with Snap
	</desc>
</svg>
